<?xml version="1.0" encoding="utf-8"?>
<!-- Generator: Adobe Illustrator 25.1.0, SVG Export Plug-In . SVG Version: 6.00 Build 0)  -->
<svg version="1.1" id="圖層_1" xmlns="http://www.w3.org/2000/svg" xmlns:xlink="http://www.w3.org/1999/xlink" x="0px" y="0px"
	 viewBox="0 0 37.7 25.4" style="enable-background:new 0 0 37.7 25.4;" xml:space="preserve">
<style type="text/css">
	.st0{fill:#4C4544;}
</style>
<g>
	<path class="st0" d="M30.3,5.9H2.1c-0.8,0-1.5,0.7-1.5,1.5v15.3c0,0.8,0.7,1.5,1.5,1.5h28.2c0.8,0,1.5-0.7,1.5-1.5V7.3
		C31.7,6.5,31.1,5.9,30.3,5.9z M28.8,21.2H3.6V8.8h25.3v12.4H28.8z"/>
	<rect x="11.1" y="10.7" class="st0" width="4.3" height="8.7"/>
	<rect x="5.3" y="10.7" class="st0" width="4.3" height="8.7"/>
	<path class="st0" d="M35.6,11.3h-1.7v7.5h1.7c0.8,0,1.5-0.7,1.5-1.5v-4.6C37.1,11.9,36.4,11.3,35.6,11.3z"/>
</g>
</svg>
