<?xml version="1.0" encoding="utf-8"?>
<!-- Generator: Adobe Illustrator 25.1.0, SVG Export Plug-In . SVG Version: 6.00 Build 0)  -->
<svg version="1.1" id="圖層_1" xmlns="http://www.w3.org/2000/svg" xmlns:xlink="http://www.w3.org/1999/xlink" x="0px" y="0px"
	 viewBox="0 0 77.9 31.6" style="enable-background:new 0 0 77.9 31.6;" xml:space="preserve">
<style type="text/css">
	.st0{fill:#FFFFFF;}
</style>
<g>
	<g>
		<g>
			<path class="st0" d="M52.3,17.5c-0.3,0-0.6-0.1-0.8-0.4c-0.4-0.5-0.4-1.2,0-1.6l8.1-7.7c0.4-0.4,1.1-0.4,1.6,0l7.9,7.7
				c0.5,0.4,0.5,1.2,0,1.6c-0.4,0.5-1.2,0.5-1.6,0l-7.1-6.9l-7.3,6.9C52.8,17.4,52.6,17.5,52.3,17.5z"/>
		</g>
		<g>
			<path class="st0" d="M52.3,23.5c-0.3,0-0.6-0.1-0.8-0.4c-0.4-0.5-0.4-1.2,0-1.6l8.1-7.7c0.4-0.4,1.1-0.4,1.6,0l7.9,7.7
				c0.5,0.4,0.5,1.2,0,1.6c-0.4,0.5-1.2,0.5-1.6,0l-7.1-6.9l-7.3,6.9C52.8,23.4,52.6,23.5,52.3,23.5z"/>
		</g>
	</g>
	<g>
		<path class="st0" d="M38.6,6.3H9.8C9,6.3,8.3,6.9,8.3,7.7v15.6c0,0.8,0.7,1.5,1.5,1.5h28.7c0.8,0,1.5-0.7,1.5-1.5V7.7
			C40,6.9,39.4,6.3,38.6,6.3z M37.1,21.9H11.3V9.2h25.8V21.9z"/>
		<rect x="30.8" y="11.1" class="st0" width="4.4" height="8.9"/>
		<rect x="24.9" y="11.1" class="st0" width="4.4" height="8.9"/>
		<rect x="19" y="11.1" class="st0" width="4.4" height="8.9"/>
		<rect x="13.1" y="11.1" class="st0" width="4.4" height="8.9"/>
		<path class="st0" d="M44,11.7h-1.7v7.6H44c0.8,0,1.5-0.7,1.5-1.5v-4.6C45.5,12.4,44.8,11.7,44,11.7z"/>
	</g>
</g>
</svg>
