<?xml version="1.0" encoding="utf-8"?>
<!-- Generator: Adobe Illustrator 25.1.0, SVG Export Plug-In . SVG Version: 6.00 Build 0)  -->
<svg version="1.1" id="圖層_1" xmlns="http://www.w3.org/2000/svg" xmlns:xlink="http://www.w3.org/1999/xlink" x="0px" y="0px"
	 viewBox="0 0 31.2 31.2" style="enable-background:new 0 0 31.2 31.2;" xml:space="preserve">
<style type="text/css">
	.st0{fill:#555656;}
</style>
<g>
	<g>
		<g>
			<g>
				<path class="st0" d="M15.3,25.9c-6.1,0-11.1-5-11.1-11.1c0-6.1,5-11.1,11.1-11.1c6.1,0,11.1,5,11.1,11.1
					C26.5,20.9,21.5,25.9,15.3,25.9z M15.3,4.7c-5.5,0-10,4.5-10,10c0,5.5,4.5,10,10,10c5.5,0,10-4.5,10-10
					C25.4,9.2,20.9,4.7,15.3,4.7z"/>
			</g>
			<g>
				<g>
					<path class="st0" d="M18,20c-0.4-0.2-0.6-0.7-0.5-1.1c0.4-1.6,0.1-3.3-0.8-4.7c-0.9-1.4-2.3-2.4-3.9-2.7
						c-0.6-0.1-1-0.7-0.8-1.3c0.1-0.6,0.7-0.9,1.3-0.8c2.2,0.5,4.1,1.8,5.3,3.7c1.2,1.9,1.6,4.1,1.1,6.3c-0.1,0.6-0.7,0.9-1.3,0.8
						C18.2,20.1,18.1,20.1,18,20z"/>
				</g>
				<g>
					<path class="st0" d="M14.3,19.4c-0.4-0.2-0.6-0.7-0.5-1.1c0.2-0.7,0-1.5-0.4-2.2c-0.4-0.6-1.1-1.1-1.8-1.3
						c-0.6-0.1-0.9-0.7-0.8-1.3c0.1-0.6,0.7-0.9,1.3-0.8c1.3,0.3,2.4,1.1,3.2,2.2c0.7,1.1,1,2.5,0.7,3.8c-0.1,0.6-0.7,0.9-1.3,0.8
						C14.6,19.6,14.4,19.5,14.3,19.4z"/>
				</g>
			</g>
		</g>
	</g>
</g>
</svg>
