<?xml version="1.0" encoding="utf-8"?>
<!-- Generator: Adobe Illustrator 25.1.0, SVG Export Plug-In . SVG Version: 6.00 Build 0)  -->
<svg version="1.1" id="圖層_1" xmlns="http://www.w3.org/2000/svg" xmlns:xlink="http://www.w3.org/1999/xlink" x="0px" y="0px"
	 viewBox="0 0 31.2 31.2" style="enable-background:new 0 0 31.2 31.2;" xml:space="preserve">
<style type="text/css">
	.st0{fill:#555656;}
</style>
<g>
	<g>
		<g>
			<path class="st0" d="M15.3,25.9c-6.1,0-11.1-5-11.1-11.1c0-6.1,5-11.1,11.1-11.1c6.1,0,11.1,5,11.1,11.1
				C26.5,20.9,21.5,25.9,15.3,25.9z M15.3,4.7c-5.5,0-10,4.5-10,10c0,5.5,4.5,10,10,10c5.5,0,10-4.5,10-10
				C25.4,9.2,20.9,4.7,15.3,4.7z"/>
		</g>
	</g>
	<g>
		<g>
			<path class="st0" d="M12.6,22.5C12.6,22.6,12.6,22.7,12.6,22.5l6.3-9.2c0.1-0.2,0.1-0.3-0.1-0.3h-2.7c-0.2,0-0.3,0-0.3,0
				s-0.1,0-0.2,0c-0.1,0-0.2-0.1-0.1-0.3l1.7-5.7c0.1-0.2,0-0.2-0.1,0l-6.2,9.2c-0.1,0.2-0.1,0.3,0.1,0.3h2.7c0.2,0,0.3,0,0.3,0
				s0.1,0,0.2,0c0.1,0,0.2,0.1,0.1,0.3L12.6,22.5z"/>
		</g>
	</g>
</g>
</svg>
